<?xml version="1.0" encoding="UTF-8"?>
<svg id="Outline" xmlns="http://www.w3.org/2000/svg" version="1.1" viewBox="0 0 64 64">
  <!-- Generator: Adobe Illustrator 29.5.1, SVG Export Plug-In . SVG Version: 2.1.0 Build 141)  -->
  <path d="M56.65,20.753c.34-.29.44-.77.26-1.17-.18-.41-.61-.64-1.05-.58l-2.46.35c-2.7.39-5.48-.17-7.82-1.58-3.33-2-7.42-1.87-10.58.15v-2.31c.61-.71,1-1.61,1-2.62,0-1.94-2.71-5.06-3.26-5.67-.37-.42-1.11-.42-1.48,0-.55.61-3.26,3.73-3.26,5.67,0,1.01.39,1.91,1,2.62v2.31c-3.16-2.02-7.25-2.15-10.58-.15-2.34,1.41-5.12,1.97-7.82,1.58l-2.46-.35c-.44-.06-.87.17-1.05.58-.18.4-.08.88.26,1.17l2.47,2.11c1.54,1.33,3.4,2.19,5.35,2.57l-3.79,7.56h-1.38c-.55,0-1,.45-1,1v1c0,4.41,3.59,8,8,8s8-3.59,8-8v-1c0-.55-.45-1-1-1h-1.38l-3.74-7.48c.71-.09,1.41-.23,2.1-.46,1.95-.65,4.09-.65,6.04,0l1.98.66v1.28h-1c-.55,0-1,.45-1,1v17h-4c-.55,0-1,.45-1,1v5h-1c-.55,0-1,.45-1,1v4c0,.55.45,1,1,1h22c.55,0,1-.45,1-1v-4c0-.55-.45-1-1-1h-1v-5c0-.55-.45-1-1-1h-4v-17c0-.55-.45-1-1-1h-1v-1.28l1.98-.66c1.95-.65,4.09-.65,6.04,0,.69.23,1.39.37,2.1.46l-3.74,7.48h-1.38c-.55,0-1,.45-1,1v1c0,4.41,3.59,8,8,8s8-3.59,8-8v-1c0-.55-.45-1-1-1h-1.38l-3.79-7.56c1.95-.38,3.81-1.24,5.35-2.57l2.47-2.11ZM32,9.543c1.06,1.33,2,2.83,2,3.45,0,1.1-.9,2-2,2s-2-.9-2-2c0-.64.94-2.13,2-3.45ZM33,16.853v10.14h-2v-10.14c.32.08.65.14,1,.14s.68-.06,1-.14ZM23,34.993c0,3.31-2.69,6-6,6s-6-2.69-6-6h12ZM20.38,32.993h-6.76l3.38-6.76,3.38,6.76ZM27.65,23.152c-2.35-.78-4.95-.78-7.3,0-3.12,1.05-6.61.38-9.13-1.72,2.86.22,5.76-.46,8.23-1.94,3.07-1.84,6.93-1.42,9.55.96v3.15l-1.35-.45ZM29,28.993h6v16h-6v-16ZM42,52.993v2h-20v-2h20ZM40,46.993v4h-16v-4h16ZM53,34.993c0,3.31-2.69,6-6,6s-6-2.69-6-6h12ZM50.38,32.993h-6.76l3.38-6.76,3.38,6.76ZM43.65,23.152c-2.35-.78-4.95-.78-7.3,0l-1.35.45v-3.15c2.62-2.38,6.48-2.8,9.55-.96,2.47,1.48,5.36,2.16,8.23,1.94-2.52,2.1-6.01,2.76-9.13,1.72Z"/>
</svg>