<?xml version="1.0" encoding="UTF-8"?>
<svg id="Outline" xmlns="http://www.w3.org/2000/svg" version="1.1" viewBox="0 0 64 64">
  <!-- Generator: Adobe Illustrator 29.5.1, SVG Export Plug-In . SVG Version: 2.1.0 Build 141)  -->
  <path d="M48,13.5h-7.18c-.42-1.16-1.52-2-2.82-2h-2c0-2.21-1.79-4-4-4s-4,1.79-4,4h-2c-1.3,0-2.4.84-2.82,2h-7.18c-1.65,0-3,1.35-3,3v37c0,1.65,1.35,3,3,3h32c1.65,0,3-1.35,3-3V16.5c0-1.65-1.35-3-3-3ZM32,9.5c1.1,0,2,.9,2,2s-.9,2-2,2-2-.9-2-2,.9-2,2-2ZM25,14.5c0-.55.45-1,1-1h2.56c.69,1.19,1.97,2,3.44,2s2.75-.81,3.44-2h2.56c.55,0,1,.45,1,1v3h-14v-3ZM17,18.5v36h-1c-.55,0-1-.45-1-1V16.5c0-.55.45-1,1-1h7v2h-5c-.55,0-1,.45-1,1ZM31.11,54.5l8.35-1.85.92,1.85h-9.27ZM41,49.5h-10v-2h10v2ZM45,53.03c0,.81-.66,1.47-1.47,1.47-.56,0-1.07-.31-1.32-.81l-1.09-2.19h.88c.55,0,1-.45,1-1v-4c0-.55-.45-1-1-1h-12c-.55,0-1,.45-1,1v4c0,.55.45,1,1,1h5.39l-13.5,3h-2.89V19.5h26v33.53ZM49,53.5c0,.55-.45,1-1,1h-1.34c.21-.45.34-.94.34-1.47V18.5c0-.55-.45-1-1-1h-5v-2h7c.55,0,1,.45,1,1v37Z"/>
  <path d="M27.465,35.792c.944.945,2.199,1.465,3.535,1.465s2.592-.521,3.535-1.465l3.172-3.171c.566-.567.879-1.32.879-2.121s-.312-1.555-.879-2.121c-1.17-1.17-3.072-1.169-4.242,0l-2.465,2.465-.465-.465c-1.17-1.168-3.072-1.169-4.242,0-.566.567-.879,1.32-.879,2.122s.312,1.554.879,2.121l1.172,1.171ZM27.707,31.793c.195-.195.451-.292.707-.292s.512.098.707.292l1.172,1.172c.391.391,1.023.391,1.414,0l3.172-3.171c.389-.39,1.023-.39,1.414,0,.189.188.293.439.293.707s-.104.518-.293.707l-3.172,3.171c-1.133,1.134-3.109,1.134-4.242,0l-1.172-1.171c-.188-.189-.293-.44-.293-.707s.104-.518.293-.707Z"/>
  <path d="M31.804,43.48c.064.013.131.02.196.02s.132-.006.196-.02c6.26-1.252,10.804-6.794,10.804-13.179v-5.802c0-.477-.337-.887-.804-.98l-10-2c-.129-.026-.264-.026-.393,0l-10,2c-.467.093-.804.504-.804.98v5.802c0,6.384,4.544,11.927,10.804,13.179ZM23,25.32l9-1.8,9,1.8v4.982c0,5.367-3.773,10.035-9,11.177-5.227-1.142-9-5.81-9-11.177v-4.982Z"/>
  <path d="M22,51.5h4c.553,0,1-.448,1-1v-4c0-.552-.447-1-1-1h-4c-.553,0-1,.448-1,1v4c0,.552.447,1,1,1ZM23,47.5h2v2h-2v-2Z"/>
</svg>